<svg xmlns="http://www.w3.org/2000/svg" xmlns:xlink="http://www.w3.org/1999/xlink" width="150" zoomAndPan="magnify" viewBox="0 0 112.5 37.5" height="50" preserveAspectRatio="xMidYMid meet" version="1.0"><defs><g/><clipPath id="4644d2f4b8"><path d="M 14.050781 22.820312 L 35.535156 22.820312 L 35.535156 31.957031 L 14.050781 31.957031 Z M 14.050781 22.820312 " clip-rule="nonzero"/></clipPath><clipPath id="a489f0d0ec"><path d="M 35.535156 27.390625 C 35.535156 28.601562 35.050781 29.761719 34.195312 30.621094 C 33.339844 31.476562 32.175781 31.957031 30.964844 31.957031 L 18.625 31.957031 C 17.414062 31.957031 16.25 31.476562 15.394531 30.621094 C 14.539062 29.761719 14.058594 28.601562 14.058594 27.390625 C 14.058594 26.179688 14.539062 25.015625 15.394531 24.160156 C 16.25 23.304688 17.414062 22.820312 18.625 22.820312 L 30.964844 22.820312 C 32.175781 22.820312 33.339844 23.304688 34.195312 24.160156 C 35.050781 25.015625 35.535156 26.179688 35.535156 27.390625 Z M 35.535156 27.390625 " clip-rule="nonzero"/></clipPath><clipPath id="c9dec31ec5"><path d="M 0.0507812 0.820312 L 21.535156 0.820312 L 21.535156 9.957031 L 0.0507812 9.957031 Z M 0.0507812 0.820312 " clip-rule="nonzero"/></clipPath><clipPath id="241c042cf0"><path d="M 21.535156 5.390625 C 21.535156 6.601562 21.050781 7.761719 20.195312 8.621094 C 19.339844 9.476562 18.175781 9.957031 16.964844 9.957031 L 4.625 9.957031 C 3.414062 9.957031 2.25 9.476562 1.394531 8.621094 C 0.539062 7.761719 0.0585938 6.601562 0.0585938 5.390625 C 0.0585938 4.179688 0.539062 3.015625 1.394531 2.160156 C 2.25 1.304688 3.414062 0.820312 4.625 0.820312 L 16.964844 0.820312 C 18.175781 0.820312 19.339844 1.304688 20.195312 2.160156 C 21.050781 3.015625 21.535156 4.179688 21.535156 5.390625 Z M 21.535156 5.390625 " clip-rule="nonzero"/></clipPath><clipPath id="2c801891ce"><rect x="0" width="22" y="0" height="10"/></clipPath><clipPath id="2db96b1da3"><rect x="0" width="107" y="0" height="26"/></clipPath><clipPath id="4b2dc9086f"><rect x="0" width="72" y="0" height="13"/></clipPath></defs><g clip-path="url(#4644d2f4b8)"><g clip-path="url(#a489f0d0ec)"><g transform="matrix(1, 0, 0, 1, 14, 22)"><g clip-path="url(#2c801891ce)"><g clip-path="url(#c9dec31ec5)"><g clip-path="url(#241c042cf0)"><path fill="#5bb8ac" d="M 21.535156 0.820312 L 21.535156 9.957031 L 0.0507812 9.957031 L 0.0507812 0.820312 Z M 21.535156 0.820312 " fill-opacity="1" fill-rule="nonzero"/></g></g></g></g></g></g><g transform="matrix(1, 0, 0, 1, 2, 1)"><g clip-path="url(#2db96b1da3)"><g fill="#0c3830" fill-opacity="1"><g transform="translate(0.34375, 19.176738)"><g><path d="M 11.59375 -4.859375 L 15.109375 -4.859375 C 14.785156 -3.878906 14.28125 -3.003906 13.59375 -2.234375 C 12.90625 -1.472656 12.09375 -0.875 11.15625 -0.4375 C 10.21875 -0.0078125 9.203125 0.203125 8.109375 0.203125 C 7.097656 0.203125 6.144531 0.015625 5.25 -0.359375 C 4.363281 -0.734375 3.578125 -1.257812 2.890625 -1.9375 C 2.210938 -2.625 1.679688 -3.410156 1.296875 -4.296875 C 0.921875 -5.191406 0.734375 -6.144531 0.734375 -7.15625 C 0.734375 -8.164062 0.921875 -9.113281 1.296875 -10 C 1.679688 -10.894531 2.210938 -11.679688 2.890625 -12.359375 C 3.578125 -13.046875 4.363281 -13.578125 5.25 -13.953125 C 6.144531 -14.328125 7.097656 -14.515625 8.109375 -14.515625 C 9.203125 -14.515625 10.210938 -14.296875 11.140625 -13.859375 C 12.078125 -13.429688 12.890625 -12.84375 13.578125 -12.09375 C 14.265625 -11.34375 14.769531 -10.472656 15.09375 -9.484375 L 11.578125 -9.484375 C 11.285156 -10.128906 10.816406 -10.640625 10.171875 -11.015625 C 9.523438 -11.390625 8.835938 -11.578125 8.109375 -11.578125 C 7.335938 -11.578125 6.632812 -11.375 6 -10.96875 C 5.363281 -10.570312 4.859375 -10.039062 4.484375 -9.375 C 4.117188 -8.707031 3.9375 -7.96875 3.9375 -7.15625 C 3.9375 -6.34375 4.117188 -5.601562 4.484375 -4.9375 C 4.859375 -4.269531 5.363281 -3.734375 6 -3.328125 C 6.632812 -2.929688 7.335938 -2.734375 8.109375 -2.734375 C 8.847656 -2.734375 9.539062 -2.929688 10.1875 -3.328125 C 10.832031 -3.722656 11.300781 -4.234375 11.59375 -4.859375 Z M 11.59375 -4.859375 "/></g></g></g><g fill="#0c3830" fill-opacity="1"><g transform="translate(14.755727, 19.176738)"><g><path d="M 4.421875 0 L 1.265625 0 L 1.265625 -15.78125 L 4.421875 -15.78125 Z M 4.421875 0 "/></g></g></g><g fill="#0c3830" fill-opacity="1"><g transform="translate(19.215851, 19.176738)"><g><path d="M 8.53125 -4.625 C 8.53125 -5.03125 8.429688 -5.410156 8.234375 -5.765625 C 8.035156 -6.117188 7.769531 -6.40625 7.4375 -6.625 C 7.113281 -6.84375 6.738281 -6.953125 6.3125 -6.953125 C 5.894531 -6.953125 5.519531 -6.84375 5.1875 -6.625 C 4.851562 -6.40625 4.585938 -6.117188 4.390625 -5.765625 C 4.203125 -5.410156 4.109375 -5.03125 4.109375 -4.625 C 4.109375 -4.21875 4.203125 -3.835938 4.390625 -3.484375 C 4.585938 -3.140625 4.851562 -2.859375 5.1875 -2.640625 C 5.519531 -2.421875 5.894531 -2.3125 6.3125 -2.3125 C 6.738281 -2.3125 7.113281 -2.421875 7.4375 -2.640625 C 7.769531 -2.859375 8.035156 -3.140625 8.234375 -3.484375 C 8.429688 -3.835938 8.53125 -4.21875 8.53125 -4.625 Z M 11.6875 -9.265625 L 11.6875 0 L 8.53125 0 L 8.53125 -1.109375 C 8.21875 -0.640625 7.753906 -0.300781 7.140625 -0.09375 C 6.535156 0.101562 5.9375 0.203125 5.34375 0.203125 C 4.476562 0.203125 3.691406 -0.0195312 2.984375 -0.46875 C 2.285156 -0.914062 1.734375 -1.503906 1.328125 -2.234375 C 0.929688 -2.972656 0.734375 -3.769531 0.734375 -4.625 C 0.734375 -5.488281 0.929688 -6.285156 1.328125 -7.015625 C 1.734375 -7.753906 2.285156 -8.347656 2.984375 -8.796875 C 3.691406 -9.253906 4.476562 -9.484375 5.34375 -9.484375 C 5.9375 -9.484375 6.507812 -9.382812 7.0625 -9.1875 C 7.625 -9 8.113281 -8.648438 8.53125 -8.140625 L 8.53125 -9.265625 Z M 11.6875 -9.265625 "/></g></g></g><g fill="#0c3830" fill-opacity="1"><g transform="translate(30.934726, 19.176738)"><g><path d="M 1.046875 -4 L 1.046875 -9.28125 L 4.203125 -9.28125 L 4.203125 -4 C 4.203125 -3.46875 4.316406 -3.050781 4.546875 -2.75 C 4.773438 -2.457031 5.132812 -2.3125 5.625 -2.3125 C 6.113281 -2.3125 6.53125 -2.539062 6.875 -3 C 7.21875 -3.46875 7.390625 -4.007812 7.390625 -4.625 L 7.390625 -9.28125 L 10.546875 -9.28125 L 10.546875 0 L 7.390625 0 L 7.390625 -1.140625 C 7.078125 -0.742188 6.675781 -0.421875 6.1875 -0.171875 C 5.707031 0.078125 5.160156 0.203125 4.546875 0.203125 C 3.304688 0.203125 2.410156 -0.179688 1.859375 -0.953125 C 1.316406 -1.734375 1.046875 -2.75 1.046875 -4 Z M 1.046875 -4 "/></g></g></g><g fill="#0c3830" fill-opacity="1"><g transform="translate(41.517448, 19.176738)"><g><path d="M 8.53125 -4.625 C 8.53125 -5.03125 8.429688 -5.410156 8.234375 -5.765625 C 8.035156 -6.117188 7.769531 -6.40625 7.4375 -6.625 C 7.113281 -6.84375 6.738281 -6.953125 6.3125 -6.953125 C 5.894531 -6.953125 5.519531 -6.84375 5.1875 -6.625 C 4.851562 -6.40625 4.585938 -6.117188 4.390625 -5.765625 C 4.203125 -5.410156 4.109375 -5.03125 4.109375 -4.625 C 4.109375 -4.21875 4.203125 -3.835938 4.390625 -3.484375 C 4.585938 -3.140625 4.851562 -2.859375 5.1875 -2.640625 C 5.519531 -2.421875 5.894531 -2.3125 6.3125 -2.3125 C 6.738281 -2.3125 7.113281 -2.421875 7.4375 -2.640625 C 7.769531 -2.859375 8.035156 -3.140625 8.234375 -3.484375 C 8.429688 -3.835938 8.53125 -4.21875 8.53125 -4.625 Z M 11.6875 -15.78125 L 11.6875 0 L 8.53125 0 L 8.53125 -1.109375 C 8.21875 -0.640625 7.753906 -0.300781 7.140625 -0.09375 C 6.535156 0.101562 5.9375 0.203125 5.34375 0.203125 C 4.476562 0.203125 3.691406 -0.0195312 2.984375 -0.46875 C 2.285156 -0.914062 1.734375 -1.503906 1.328125 -2.234375 C 0.929688 -2.972656 0.734375 -3.769531 0.734375 -4.625 C 0.734375 -5.488281 0.929688 -6.285156 1.328125 -7.015625 C 1.734375 -7.753906 2.285156 -8.347656 2.984375 -8.796875 C 3.691406 -9.253906 4.476562 -9.484375 5.34375 -9.484375 C 5.9375 -9.484375 6.507812 -9.382812 7.0625 -9.1875 C 7.625 -9 8.113281 -8.648438 8.53125 -8.140625 L 8.53125 -15.78125 Z M 11.6875 -15.78125 "/></g></g></g><g fill="#0c3830" fill-opacity="1"><g transform="translate(53.236323, 19.176738)"><g><path d="M 1.09375 -12.453125 C 1.09375 -12.972656 1.269531 -13.410156 1.625 -13.765625 C 1.988281 -14.128906 2.429688 -14.3125 2.953125 -14.3125 C 3.453125 -14.3125 3.882812 -14.128906 4.25 -13.765625 C 4.613281 -13.410156 4.796875 -12.972656 4.796875 -12.453125 C 4.796875 -11.953125 4.613281 -11.519531 4.25 -11.15625 C 3.882812 -10.789062 3.453125 -10.609375 2.953125 -10.609375 C 2.429688 -10.609375 1.988281 -10.789062 1.625 -11.15625 C 1.269531 -11.519531 1.09375 -11.953125 1.09375 -12.453125 Z M 4.53125 0 L 1.375 0 L 1.375 -9.28125 L 4.53125 -9.28125 Z M 4.53125 0 "/></g></g></g><g fill="#0c3830" fill-opacity="1"><g transform="translate(57.906844, 19.176738)"><g><path d="M 9.046875 -5.46875 L 7.234375 -10.5625 L 5.4375 -5.46875 Z M 14.390625 0 L 11 0 L 9.96875 -2.890625 L 4.53125 -2.890625 L 3.5 0 L 0.109375 0 L 5.921875 -14.3125 L 8.59375 -14.3125 Z M 14.390625 0 "/></g></g></g><g fill="#0c3830" fill-opacity="1"><g transform="translate(71.182668, 19.176738)"><g><path d="M 4.421875 0 L 1.265625 0 L 1.265625 -15.78125 L 4.421875 -15.78125 Z M 4.421875 0 "/></g></g></g><g fill="#0c3830" fill-opacity="1"><g transform="translate(75.642792, 19.176738)"><g><path d="M 10.59375 -9.28125 L 7.046875 0 L 3.328125 0 L -0.203125 -9.28125 L 2.96875 -9.28125 L 5.171875 -2.65625 L 7.390625 -9.28125 Z M 10.59375 -9.28125 "/></g></g></g><g fill="#0c3830" fill-opacity="1"><g transform="translate(84.794799, 19.176738)"><g><path d="M 4.125 -5.75 L 8.265625 -5.75 C 8.265625 -5.75 8.25 -5.832031 8.21875 -6 C 8.1875 -6.175781 8.101562 -6.378906 7.96875 -6.609375 C 7.832031 -6.835938 7.625 -7.035156 7.34375 -7.203125 C 7.0625 -7.378906 6.679688 -7.46875 6.203125 -7.46875 C 5.710938 -7.46875 5.328125 -7.378906 5.046875 -7.203125 C 4.765625 -7.035156 4.554688 -6.835938 4.421875 -6.609375 C 4.296875 -6.378906 4.210938 -6.175781 4.171875 -6 C 4.140625 -5.832031 4.125 -5.75 4.125 -5.75 Z M 11.296875 -4.84375 C 11.296875 -4.738281 11.289062 -4.640625 11.28125 -4.546875 C 11.28125 -4.453125 11.28125 -4.351562 11.28125 -4.25 L 4.078125 -4.25 C 4.078125 -3.894531 4.15625 -3.546875 4.3125 -3.203125 C 4.476562 -2.859375 4.710938 -2.578125 5.015625 -2.359375 C 5.316406 -2.148438 5.671875 -2.046875 6.078125 -2.046875 C 6.640625 -2.046875 7.082031 -2.195312 7.40625 -2.5 C 7.726562 -2.800781 7.894531 -3.117188 7.90625 -3.453125 L 11.140625 -3.453125 C 10.867188 -2.234375 10.273438 -1.316406 9.359375 -0.703125 C 8.453125 -0.0976562 7.378906 0.203125 6.140625 0.203125 C 5.078125 0.203125 4.140625 0.00390625 3.328125 -0.390625 C 2.515625 -0.785156 1.878906 -1.34375 1.421875 -2.0625 C 0.960938 -2.789062 0.734375 -3.644531 0.734375 -4.625 C 0.734375 -5.59375 0.96875 -6.441406 1.4375 -7.171875 C 1.90625 -7.898438 2.546875 -8.46875 3.359375 -8.875 C 4.179688 -9.28125 5.109375 -9.484375 6.140625 -9.484375 C 7.085938 -9.484375 7.945312 -9.300781 8.71875 -8.9375 C 9.5 -8.570312 10.125 -8.046875 10.59375 -7.359375 C 11.0625 -6.671875 11.296875 -5.832031 11.296875 -4.84375 Z M 11.296875 -4.84375 "/></g></g></g><g fill="#0c3830" fill-opacity="1"><g transform="translate(95.608953, 19.176738)"><g><path d="M 9.84375 -6.46875 L 6.75 -6.46875 C 6.695312 -6.882812 6.507812 -7.164062 6.1875 -7.3125 C 5.875 -7.457031 5.566406 -7.53125 5.265625 -7.53125 C 4.953125 -7.53125 4.660156 -7.457031 4.390625 -7.3125 C 4.128906 -7.164062 4 -6.953125 4 -6.671875 C 4 -6.460938 4.140625 -6.304688 4.421875 -6.203125 C 4.710938 -6.097656 5.085938 -6.007812 5.546875 -5.9375 C 6.003906 -5.875 6.488281 -5.796875 7 -5.703125 C 7.507812 -5.609375 7.992188 -5.453125 8.453125 -5.234375 C 8.910156 -5.023438 9.28125 -4.726562 9.5625 -4.34375 C 9.851562 -3.957031 10 -3.4375 10 -2.78125 C 10 -2.050781 9.804688 -1.46875 9.421875 -1.03125 C 9.035156 -0.59375 8.5 -0.273438 7.8125 -0.078125 C 7.125 0.109375 6.332031 0.203125 5.4375 0.203125 C 4.519531 0.203125 3.691406 0.0820312 2.953125 -0.15625 C 2.222656 -0.40625 1.628906 -0.796875 1.171875 -1.328125 C 0.722656 -1.867188 0.472656 -2.578125 0.421875 -3.453125 L 3.5625 -3.453125 C 3.5625 -2.984375 3.671875 -2.644531 3.890625 -2.4375 C 4.117188 -2.238281 4.382812 -2.113281 4.6875 -2.0625 C 5 -2.007812 5.269531 -1.984375 5.5 -1.984375 C 5.863281 -1.984375 6.171875 -2.046875 6.421875 -2.171875 C 6.679688 -2.304688 6.8125 -2.5 6.8125 -2.75 C 6.8125 -3.070312 6.664062 -3.316406 6.375 -3.484375 C 6.09375 -3.660156 5.722656 -3.789062 5.265625 -3.875 C 4.816406 -3.957031 4.332031 -4.039062 3.8125 -4.125 C 3.300781 -4.207031 2.816406 -4.328125 2.359375 -4.484375 C 1.910156 -4.648438 1.539062 -4.894531 1.25 -5.21875 C 0.96875 -5.539062 0.828125 -5.984375 0.828125 -6.546875 C 0.828125 -7.503906 1.195312 -8.234375 1.9375 -8.734375 C 2.675781 -9.234375 3.8125 -9.484375 5.34375 -9.484375 C 6.5625 -9.484375 7.582031 -9.242188 8.40625 -8.765625 C 9.226562 -8.296875 9.707031 -7.53125 9.84375 -6.46875 Z M 9.84375 -6.46875 "/></g></g></g></g></g><g transform="matrix(1, 0, 0, 1, 21, 22)"><g clip-path="url(#4b2dc9086f)"><g fill="#ffffff" fill-opacity="1"><g transform="translate(0.69259, 9.116975)"><g><path d="M 4.3125 0.15625 C 3.863281 0.15625 3.441406 0.09375 3.046875 -0.03125 C 2.660156 -0.164062 2.300781 -0.347656 1.96875 -0.578125 C 1.644531 -0.816406 1.363281 -1.097656 1.125 -1.421875 C 0.882812 -1.753906 0.695312 -2.113281 0.5625 -2.5 C 0.425781 -2.894531 0.359375 -3.3125 0.359375 -3.75 C 0.359375 -4.1875 0.425781 -4.597656 0.5625 -4.984375 C 0.695312 -5.367188 0.882812 -5.722656 1.125 -6.046875 C 1.363281 -6.378906 1.644531 -6.660156 1.96875 -6.890625 C 2.300781 -7.128906 2.660156 -7.3125 3.046875 -7.4375 C 3.441406 -7.570312 3.863281 -7.640625 4.3125 -7.640625 C 4.707031 -7.640625 5.097656 -7.582031 5.484375 -7.46875 C 5.867188 -7.351562 6.226562 -7.175781 6.5625 -6.9375 C 6.90625 -6.695312 7.191406 -6.394531 7.421875 -6.03125 C 7.660156 -5.664062 7.820312 -5.234375 7.90625 -4.734375 L 6.515625 -4.734375 C 6.410156 -5.117188 6.25 -5.429688 6.03125 -5.671875 C 5.820312 -5.921875 5.5625 -6.101562 5.25 -6.21875 C 4.945312 -6.332031 4.617188 -6.390625 4.265625 -6.390625 C 3.910156 -6.390625 3.578125 -6.328125 3.265625 -6.203125 C 2.960938 -6.078125 2.695312 -5.894531 2.46875 -5.65625 C 2.238281 -5.425781 2.054688 -5.148438 1.921875 -4.828125 C 1.796875 -4.503906 1.734375 -4.140625 1.734375 -3.734375 C 1.734375 -3.328125 1.796875 -2.960938 1.921875 -2.640625 C 2.054688 -2.316406 2.238281 -2.039062 2.46875 -1.8125 C 2.695312 -1.582031 2.960938 -1.40625 3.265625 -1.28125 C 3.578125 -1.15625 3.910156 -1.09375 4.265625 -1.09375 C 4.617188 -1.09375 4.945312 -1.148438 5.25 -1.265625 C 5.550781 -1.390625 5.8125 -1.570312 6.03125 -1.8125 C 6.25 -2.0625 6.410156 -2.375 6.515625 -2.75 L 7.90625 -2.75 C 7.820312 -2.257812 7.660156 -1.828125 7.421875 -1.453125 C 7.191406 -1.085938 6.910156 -0.785156 6.578125 -0.546875 C 6.242188 -0.304688 5.878906 -0.128906 5.484375 -0.015625 C 5.097656 0.0976562 4.707031 0.15625 4.3125 0.15625 Z M 4.3125 0.15625 "/></g></g></g><g fill="#ffffff" fill-opacity="1"><g transform="translate(8.317314, 9.116975)"><g><path d="M 3.34375 0.171875 C 2.914062 0.171875 2.519531 0.09375 2.15625 -0.0625 C 1.789062 -0.21875 1.472656 -0.429688 1.203125 -0.703125 C 0.941406 -0.972656 0.738281 -1.289062 0.59375 -1.65625 C 0.445312 -2.019531 0.375 -2.410156 0.375 -2.828125 C 0.375 -3.234375 0.445312 -3.617188 0.59375 -3.984375 C 0.738281 -4.347656 0.941406 -4.664062 1.203125 -4.9375 C 1.472656 -5.207031 1.789062 -5.421875 2.15625 -5.578125 C 2.519531 -5.734375 2.914062 -5.8125 3.34375 -5.8125 C 3.78125 -5.8125 4.179688 -5.734375 4.546875 -5.578125 C 4.910156 -5.421875 5.222656 -5.207031 5.484375 -4.9375 C 5.753906 -4.664062 5.960938 -4.347656 6.109375 -3.984375 C 6.253906 -3.617188 6.328125 -3.234375 6.328125 -2.828125 C 6.328125 -2.410156 6.253906 -2.019531 6.109375 -1.65625 C 5.960938 -1.289062 5.753906 -0.972656 5.484375 -0.703125 C 5.222656 -0.429688 4.910156 -0.21875 4.546875 -0.0625 C 4.179688 0.09375 3.78125 0.171875 3.34375 0.171875 Z M 3.359375 -1.0625 C 3.671875 -1.0625 3.953125 -1.132812 4.203125 -1.28125 C 4.453125 -1.4375 4.648438 -1.644531 4.796875 -1.90625 C 4.941406 -2.175781 5.015625 -2.484375 5.015625 -2.828125 C 5.015625 -3.160156 4.941406 -3.457031 4.796875 -3.71875 C 4.648438 -3.988281 4.453125 -4.203125 4.203125 -4.359375 C 3.953125 -4.515625 3.671875 -4.59375 3.359375 -4.59375 C 3.046875 -4.59375 2.757812 -4.515625 2.5 -4.359375 C 2.25 -4.203125 2.050781 -3.988281 1.90625 -3.71875 C 1.769531 -3.457031 1.703125 -3.160156 1.703125 -2.828125 C 1.703125 -2.484375 1.769531 -2.175781 1.90625 -1.90625 C 2.050781 -1.644531 2.25 -1.4375 2.5 -1.28125 C 2.757812 -1.132812 3.046875 -1.0625 3.359375 -1.0625 Z M 3.359375 -1.0625 "/></g></g></g><g fill="#165c52" fill-opacity="1"><g transform="translate(14.387436, 9.116975)"><g><path d="M 2.109375 0 L 0.78125 0 L 0.78125 -5.640625 L 2.046875 -5.640625 L 2.046875 -4.765625 C 2.148438 -4.972656 2.296875 -5.15625 2.484375 -5.3125 C 2.679688 -5.46875 2.90625 -5.585938 3.15625 -5.671875 C 3.40625 -5.765625 3.675781 -5.8125 3.96875 -5.8125 C 4.726562 -5.8125 5.296875 -5.570312 5.671875 -5.09375 C 6.046875 -4.613281 6.234375 -3.929688 6.234375 -3.046875 L 6.234375 0 L 4.90625 0 L 4.90625 -3.015625 C 4.90625 -3.578125 4.785156 -3.976562 4.546875 -4.21875 C 4.316406 -4.46875 4.003906 -4.59375 3.609375 -4.59375 C 3.347656 -4.59375 3.101562 -4.523438 2.875 -4.390625 C 2.644531 -4.265625 2.457031 -4.070312 2.3125 -3.8125 C 2.175781 -3.5625 2.109375 -3.253906 2.109375 -2.890625 Z M 2.109375 0 "/></g></g></g><g fill="#165c52" fill-opacity="1"><g transform="translate(20.710418, 9.116975)"><g><path d="M 4.25 0 L 3.109375 0 C 2.929688 0 2.753906 -0.015625 2.578125 -0.046875 C 2.398438 -0.078125 2.226562 -0.132812 2.0625 -0.21875 C 1.90625 -0.300781 1.765625 -0.421875 1.640625 -0.578125 C 1.515625 -0.742188 1.414062 -0.953125 1.34375 -1.203125 C 1.269531 -1.460938 1.234375 -1.773438 1.234375 -2.140625 L 1.234375 -4.5 L 0.0625 -4.5 L 0.0625 -5.640625 L 1.234375 -5.640625 L 1.234375 -7.296875 L 2.5625 -7.3125 L 2.5625 -5.640625 L 4.25 -5.640625 L 4.25 -4.5 L 2.5625 -4.5 L 2.5625 -2.09375 C 2.5625 -1.820312 2.597656 -1.613281 2.671875 -1.46875 C 2.753906 -1.332031 2.859375 -1.238281 2.984375 -1.1875 C 3.109375 -1.132812 3.238281 -1.109375 3.375 -1.109375 L 4.25 -1.109375 Z M 4.25 0 "/></g></g></g><g fill="#165c52" fill-opacity="1"><g transform="translate(24.605676, 9.116975)"><g><path d="M 4.40625 -6.3125 L 3.515625 -6.3125 L 4.34375 -7.96875 L 5.328125 -7.625 Z M 3.03125 0.171875 C 2.65625 0.171875 2.304688 0.09375 1.984375 -0.0625 C 1.660156 -0.21875 1.378906 -0.429688 1.140625 -0.703125 C 0.898438 -0.972656 0.710938 -1.289062 0.578125 -1.65625 C 0.441406 -2.019531 0.375 -2.410156 0.375 -2.828125 C 0.375 -3.234375 0.441406 -3.617188 0.578125 -3.984375 C 0.710938 -4.347656 0.898438 -4.664062 1.140625 -4.9375 C 1.378906 -5.207031 1.660156 -5.421875 1.984375 -5.578125 C 2.304688 -5.734375 2.65625 -5.8125 3.03125 -5.8125 C 3.488281 -5.8125 3.894531 -5.710938 4.25 -5.515625 C 4.613281 -5.316406 4.882812 -5.039062 5.0625 -4.6875 L 5.0625 -5.640625 L 6.328125 -5.640625 L 6.328125 0 L 5.0625 0 L 5.0625 -0.953125 C 4.882812 -0.597656 4.613281 -0.320312 4.25 -0.125 C 3.894531 0.0703125 3.488281 0.171875 3.03125 0.171875 Z M 3.359375 -1.0625 C 3.585938 -1.0625 3.800781 -1.101562 4 -1.1875 C 4.207031 -1.28125 4.382812 -1.40625 4.53125 -1.5625 C 4.6875 -1.726562 4.804688 -1.914062 4.890625 -2.125 C 4.972656 -2.34375 5.015625 -2.578125 5.015625 -2.828125 C 5.015625 -3.066406 4.96875 -3.289062 4.875 -3.5 C 4.789062 -3.71875 4.675781 -3.90625 4.53125 -4.0625 C 4.382812 -4.226562 4.207031 -4.359375 4 -4.453125 C 3.800781 -4.546875 3.585938 -4.59375 3.359375 -4.59375 C 3.054688 -4.59375 2.773438 -4.515625 2.515625 -4.359375 C 2.265625 -4.210938 2.066406 -4.007812 1.921875 -3.75 C 1.773438 -3.488281 1.703125 -3.179688 1.703125 -2.828125 C 1.703125 -2.460938 1.773438 -2.144531 1.921875 -1.875 C 2.078125 -1.613281 2.28125 -1.410156 2.53125 -1.265625 C 2.78125 -1.128906 3.054688 -1.0625 3.359375 -1.0625 Z M 3.359375 -1.0625 "/></g></g></g><g fill="#165c52" fill-opacity="1"><g transform="translate(31.065972, 9.116975)"><g><path d="M 4 0.171875 C 3.726562 0.171875 3.46875 0.125 3.21875 0.03125 C 2.96875 -0.0625 2.738281 -0.191406 2.53125 -0.359375 C 2.332031 -0.523438 2.171875 -0.722656 2.046875 -0.953125 L 2.046875 0 L 0.78125 0 L 0.78125 -7.734375 L 2.109375 -7.734375 L 2.109375 -5.46875 L 2.078125 -4.71875 C 2.203125 -4.9375 2.359375 -5.128906 2.546875 -5.296875 C 2.742188 -5.460938 2.960938 -5.585938 3.203125 -5.671875 C 3.453125 -5.765625 3.710938 -5.8125 3.984375 -5.8125 C 4.390625 -5.8125 4.757812 -5.734375 5.09375 -5.578125 C 5.425781 -5.421875 5.710938 -5.207031 5.953125 -4.9375 C 6.203125 -4.664062 6.394531 -4.347656 6.53125 -3.984375 C 6.664062 -3.617188 6.734375 -3.234375 6.734375 -2.828125 C 6.734375 -2.410156 6.664062 -2.019531 6.53125 -1.65625 C 6.394531 -1.289062 6.203125 -0.972656 5.953125 -0.703125 C 5.710938 -0.429688 5.425781 -0.21875 5.09375 -0.0625 C 4.757812 0.09375 4.394531 0.171875 4 0.171875 Z M 3.75 -1.0625 C 4.050781 -1.0625 4.328125 -1.128906 4.578125 -1.265625 C 4.828125 -1.410156 5.03125 -1.613281 5.1875 -1.875 C 5.34375 -2.144531 5.421875 -2.460938 5.421875 -2.828125 C 5.421875 -3.179688 5.34375 -3.488281 5.1875 -3.75 C 5.039062 -4.007812 4.84375 -4.210938 4.59375 -4.359375 C 4.34375 -4.515625 4.0625 -4.59375 3.75 -4.59375 C 3.519531 -4.59375 3.304688 -4.546875 3.109375 -4.453125 C 2.910156 -4.359375 2.734375 -4.226562 2.578125 -4.0625 C 2.421875 -3.90625 2.300781 -3.722656 2.21875 -3.515625 C 2.132812 -3.304688 2.09375 -3.078125 2.09375 -2.828125 C 2.09375 -2.566406 2.132812 -2.328125 2.21875 -2.109375 C 2.3125 -1.898438 2.429688 -1.710938 2.578125 -1.546875 C 2.734375 -1.390625 2.910156 -1.269531 3.109375 -1.1875 C 3.316406 -1.101562 3.53125 -1.0625 3.75 -1.0625 Z M 3.75 -1.0625 "/></g></g></g><g fill="#165c52" fill-opacity="1"><g transform="translate(37.674568, 9.116975)"><g><path d="M 1.4375 -6.53125 C 1.175781 -6.53125 0.972656 -6.601562 0.828125 -6.75 C 0.679688 -6.894531 0.609375 -7.078125 0.609375 -7.296875 C 0.609375 -7.492188 0.679688 -7.664062 0.828125 -7.8125 C 0.972656 -7.96875 1.175781 -8.046875 1.4375 -8.046875 C 1.707031 -8.046875 1.914062 -7.96875 2.0625 -7.8125 C 2.207031 -7.664062 2.28125 -7.492188 2.28125 -7.296875 C 2.28125 -7.078125 2.207031 -6.894531 2.0625 -6.75 C 1.914062 -6.601562 1.707031 -6.53125 1.4375 -6.53125 Z M 2.109375 0 L 0.78125 0 L 0.78125 -5.640625 L 2.109375 -5.640625 Z M 2.109375 0 "/></g></g></g><g fill="#165c52" fill-opacity="1"><g transform="translate(39.905573, 9.116975)"><g><path d="M 2.109375 0 L 0.78125 0 L 0.78125 -7.734375 L 2.109375 -7.734375 Z M 2.109375 0 "/></g></g></g><g fill="#165c52" fill-opacity="1"><g transform="translate(42.136578, 9.116975)"><g><path d="M 1.4375 -6.53125 C 1.175781 -6.53125 0.972656 -6.601562 0.828125 -6.75 C 0.679688 -6.894531 0.609375 -7.078125 0.609375 -7.296875 C 0.609375 -7.492188 0.679688 -7.664062 0.828125 -7.8125 C 0.972656 -7.96875 1.175781 -8.046875 1.4375 -8.046875 C 1.707031 -8.046875 1.914062 -7.96875 2.0625 -7.8125 C 2.207031 -7.664062 2.28125 -7.492188 2.28125 -7.296875 C 2.28125 -7.078125 2.207031 -6.894531 2.0625 -6.75 C 1.914062 -6.601562 1.707031 -6.53125 1.4375 -6.53125 Z M 2.109375 0 L 0.78125 0 L 0.78125 -5.640625 L 2.109375 -5.640625 Z M 2.109375 0 "/></g></g></g><g fill="#165c52" fill-opacity="1"><g transform="translate(44.367584, 9.116975)"><g><path d="M 3.109375 0.171875 C 2.710938 0.171875 2.34375 0.09375 2 -0.0625 C 1.664062 -0.21875 1.378906 -0.429688 1.140625 -0.703125 C 0.898438 -0.972656 0.710938 -1.289062 0.578125 -1.65625 C 0.441406 -2.019531 0.375 -2.410156 0.375 -2.828125 C 0.375 -3.234375 0.4375 -3.617188 0.5625 -3.984375 C 0.695312 -4.347656 0.882812 -4.664062 1.125 -4.9375 C 1.375 -5.207031 1.664062 -5.421875 2 -5.578125 C 2.34375 -5.734375 2.71875 -5.8125 3.125 -5.8125 C 3.4375 -5.8125 3.71875 -5.757812 3.96875 -5.65625 C 4.21875 -5.550781 4.429688 -5.414062 4.609375 -5.25 C 4.796875 -5.082031 4.9375 -4.90625 5.03125 -4.71875 L 5 -5.3125 L 5 -7.734375 L 6.328125 -7.734375 L 6.328125 0 L 5.0625 0 L 5.0625 -0.953125 C 4.957031 -0.753906 4.8125 -0.566406 4.625 -0.390625 C 4.4375 -0.222656 4.210938 -0.0859375 3.953125 0.015625 C 3.703125 0.117188 3.421875 0.171875 3.109375 0.171875 Z M 3.34375 -1.0625 C 3.582031 -1.0625 3.800781 -1.101562 4 -1.1875 C 4.195312 -1.28125 4.367188 -1.40625 4.515625 -1.5625 C 4.671875 -1.726562 4.789062 -1.914062 4.875 -2.125 C 4.96875 -2.34375 5.015625 -2.578125 5.015625 -2.828125 C 5.015625 -3.078125 4.972656 -3.304688 4.890625 -3.515625 C 4.804688 -3.722656 4.6875 -3.90625 4.53125 -4.0625 C 4.382812 -4.226562 4.207031 -4.359375 4 -4.453125 C 3.800781 -4.546875 3.582031 -4.59375 3.34375 -4.59375 C 3.039062 -4.59375 2.757812 -4.515625 2.5 -4.359375 C 2.25 -4.203125 2.050781 -3.992188 1.90625 -3.734375 C 1.757812 -3.472656 1.6875 -3.171875 1.6875 -2.828125 C 1.6875 -2.492188 1.753906 -2.191406 1.890625 -1.921875 C 2.035156 -1.648438 2.234375 -1.4375 2.484375 -1.28125 C 2.742188 -1.132812 3.03125 -1.0625 3.34375 -1.0625 Z M 3.34375 -1.0625 "/></g></g></g><g fill="#165c52" fill-opacity="1"><g transform="translate(50.816894, 9.116975)"><g><path d="M 3.03125 0.171875 C 2.65625 0.171875 2.304688 0.09375 1.984375 -0.0625 C 1.660156 -0.21875 1.378906 -0.429688 1.140625 -0.703125 C 0.898438 -0.972656 0.710938 -1.289062 0.578125 -1.65625 C 0.441406 -2.019531 0.375 -2.410156 0.375 -2.828125 C 0.375 -3.234375 0.441406 -3.617188 0.578125 -3.984375 C 0.710938 -4.347656 0.898438 -4.664062 1.140625 -4.9375 C 1.378906 -5.207031 1.660156 -5.421875 1.984375 -5.578125 C 2.304688 -5.734375 2.65625 -5.8125 3.03125 -5.8125 C 3.488281 -5.8125 3.894531 -5.710938 4.25 -5.515625 C 4.613281 -5.316406 4.882812 -5.039062 5.0625 -4.6875 L 5.0625 -5.640625 L 6.328125 -5.640625 L 6.328125 0 L 5.0625 0 L 5.0625 -0.953125 C 4.882812 -0.597656 4.613281 -0.320312 4.25 -0.125 C 3.894531 0.0703125 3.488281 0.171875 3.03125 0.171875 Z M 3.359375 -1.0625 C 3.585938 -1.0625 3.800781 -1.101562 4 -1.1875 C 4.207031 -1.28125 4.382812 -1.40625 4.53125 -1.5625 C 4.6875 -1.726562 4.804688 -1.914062 4.890625 -2.125 C 4.972656 -2.34375 5.015625 -2.578125 5.015625 -2.828125 C 5.015625 -3.066406 4.96875 -3.289062 4.875 -3.5 C 4.789062 -3.71875 4.675781 -3.90625 4.53125 -4.0625 C 4.382812 -4.226562 4.207031 -4.359375 4 -4.453125 C 3.800781 -4.546875 3.585938 -4.59375 3.359375 -4.59375 C 3.054688 -4.59375 2.773438 -4.515625 2.515625 -4.359375 C 2.265625 -4.210938 2.066406 -4.007812 1.921875 -3.75 C 1.773438 -3.488281 1.703125 -3.179688 1.703125 -2.828125 C 1.703125 -2.460938 1.773438 -2.144531 1.921875 -1.875 C 2.078125 -1.613281 2.28125 -1.410156 2.53125 -1.265625 C 2.78125 -1.128906 3.054688 -1.0625 3.359375 -1.0625 Z M 3.359375 -1.0625 "/></g></g></g><g fill="#165c52" fill-opacity="1"><g transform="translate(57.27719, 9.116975)"><g><path d="M 3.109375 0.171875 C 2.710938 0.171875 2.34375 0.09375 2 -0.0625 C 1.664062 -0.21875 1.378906 -0.429688 1.140625 -0.703125 C 0.898438 -0.972656 0.710938 -1.289062 0.578125 -1.65625 C 0.441406 -2.019531 0.375 -2.410156 0.375 -2.828125 C 0.375 -3.234375 0.4375 -3.617188 0.5625 -3.984375 C 0.695312 -4.347656 0.882812 -4.664062 1.125 -4.9375 C 1.375 -5.207031 1.664062 -5.421875 2 -5.578125 C 2.34375 -5.734375 2.71875 -5.8125 3.125 -5.8125 C 3.4375 -5.8125 3.71875 -5.757812 3.96875 -5.65625 C 4.21875 -5.550781 4.429688 -5.414062 4.609375 -5.25 C 4.796875 -5.082031 4.9375 -4.90625 5.03125 -4.71875 L 5 -5.3125 L 5 -7.734375 L 6.328125 -7.734375 L 6.328125 0 L 5.0625 0 L 5.0625 -0.953125 C 4.957031 -0.753906 4.8125 -0.566406 4.625 -0.390625 C 4.4375 -0.222656 4.210938 -0.0859375 3.953125 0.015625 C 3.703125 0.117188 3.421875 0.171875 3.109375 0.171875 Z M 3.34375 -1.0625 C 3.582031 -1.0625 3.800781 -1.101562 4 -1.1875 C 4.195312 -1.28125 4.367188 -1.40625 4.515625 -1.5625 C 4.671875 -1.726562 4.789062 -1.914062 4.875 -2.125 C 4.96875 -2.34375 5.015625 -2.578125 5.015625 -2.828125 C 5.015625 -3.078125 4.972656 -3.304688 4.890625 -3.515625 C 4.804688 -3.722656 4.6875 -3.90625 4.53125 -4.0625 C 4.382812 -4.226562 4.207031 -4.359375 4 -4.453125 C 3.800781 -4.546875 3.582031 -4.59375 3.34375 -4.59375 C 3.039062 -4.59375 2.757812 -4.515625 2.5 -4.359375 C 2.25 -4.203125 2.050781 -3.992188 1.90625 -3.734375 C 1.757812 -3.472656 1.6875 -3.171875 1.6875 -2.828125 C 1.6875 -2.492188 1.753906 -2.191406 1.890625 -1.921875 C 2.035156 -1.648438 2.234375 -1.4375 2.484375 -1.28125 C 2.742188 -1.132812 3.03125 -1.0625 3.34375 -1.0625 Z M 3.34375 -1.0625 "/></g></g></g><g fill="#165c52" fill-opacity="1"><g transform="translate(63.726501, 9.116975)"><g><path d="M 6.15625 -2.921875 C 6.15625 -2.847656 6.148438 -2.78125 6.140625 -2.71875 C 6.140625 -2.65625 6.132812 -2.570312 6.125 -2.46875 L 1.71875 -2.46875 C 1.757812 -2.164062 1.851562 -1.90625 2 -1.6875 C 2.15625 -1.46875 2.34375 -1.300781 2.5625 -1.1875 C 2.78125 -1.070312 3.019531 -1.015625 3.28125 -1.015625 C 3.613281 -1.015625 3.882812 -1.082031 4.09375 -1.21875 C 4.300781 -1.351562 4.453125 -1.539062 4.546875 -1.78125 L 6 -1.78125 C 5.9375 -1.519531 5.820312 -1.269531 5.65625 -1.03125 C 5.5 -0.800781 5.304688 -0.59375 5.078125 -0.40625 C 4.847656 -0.226562 4.582031 -0.0859375 4.28125 0.015625 C 3.976562 0.117188 3.65625 0.171875 3.3125 0.171875 C 2.882812 0.171875 2.488281 0.09375 2.125 -0.0625 C 1.769531 -0.21875 1.460938 -0.429688 1.203125 -0.703125 C 0.941406 -0.984375 0.738281 -1.300781 0.59375 -1.65625 C 0.445312 -2.019531 0.375 -2.410156 0.375 -2.828125 C 0.375 -3.234375 0.445312 -3.617188 0.59375 -3.984375 C 0.738281 -4.347656 0.941406 -4.664062 1.203125 -4.9375 C 1.460938 -5.207031 1.769531 -5.421875 2.125 -5.578125 C 2.488281 -5.734375 2.882812 -5.8125 3.3125 -5.8125 C 3.726562 -5.8125 4.113281 -5.734375 4.46875 -5.578125 C 4.820312 -5.429688 5.125 -5.222656 5.375 -4.953125 C 5.625 -4.679688 5.816406 -4.367188 5.953125 -4.015625 C 6.085938 -3.671875 6.15625 -3.304688 6.15625 -2.921875 Z M 1.765625 -3.5 L 4.796875 -3.5 C 4.773438 -3.707031 4.691406 -3.898438 4.546875 -4.078125 C 4.410156 -4.253906 4.234375 -4.394531 4.015625 -4.5 C 3.796875 -4.601562 3.554688 -4.65625 3.296875 -4.65625 C 3.078125 -4.65625 2.863281 -4.613281 2.65625 -4.53125 C 2.445312 -4.445312 2.265625 -4.320312 2.109375 -4.15625 C 1.960938 -3.988281 1.847656 -3.769531 1.765625 -3.5 Z M 1.765625 -3.5 "/></g></g></g></g></g></svg>